<?xml version="1.0" encoding="utf-8"?>
<!-- Generator: Adobe Illustrator 24.2.3, SVG Export Plug-In . SVG Version: 6.00 Build 0)  -->
<svg version="1.1" id="Capa_1" xmlns="http://www.w3.org/2000/svg" xmlns:xlink="http://www.w3.org/1999/xlink" x="0px" y="0px"
	 viewBox="0 0 490.7 386" style="enable-background:new 0 0 490.7 386;" xml:space="preserve">
<style type="text/css">
	.st0{fill:#FFA000;}
	.st1{fill:#FFD54F;}
	.st2{fill:#FFC107;}
</style>
<path class="st0" d="M475.1,347.1c-10,10-23.6,15.6-37.8,15.6h-384c-14.2,0-27.7-5.6-37.8-15.6L189.7,173l29.4,21.3
	c15.6,11.5,36.9,11.5,52.5,0L301,173L475.1,347.1z"/>
<path class="st1" d="M480.4,43.3L301,173l-29.4,21.3c-15.6,11.5-36.9,11.5-52.5,0L189.7,173L10,43.5c10-14,26.1-22.2,43.3-22.2h384
	C454.4,21.3,470.4,29.5,480.4,43.3z"/>
<g>
	<path class="st2" d="M10,43.5L189.7,173L15.6,347.1C5.6,337.1,0,323.5,0,309.3V74.7C0,63.5,3.5,52.6,10,43.5z"/>
	<path class="st2" d="M490.7,74.7v234.7c0,14.2-5.6,27.7-15.6,37.8L301,173L480.4,43.3C487.1,52.4,490.7,63.4,490.7,74.7z"/>
</g>
</svg>
